<mxfile host="app.diagrams.net" modified="2024-05-17T22:28:10.606Z" agent="Mozilla/5.0 (Windows NT 10.0; Win64; x64) AppleWebKit/537.36 (KHTML, like Gecko) Chrome/124.0.0.0 Safari/537.36" etag="zBDCbPJklrkYitf0vum9" version="24.3.1" type="device">
  <diagram name="PÃ¡gina-1" id="tpfj6r3Se-SdTKUQauSu">
    <mxGraphModel dx="1290" dy="565" grid="1" gridSize="10" guides="1" tooltips="1" connect="1" arrows="1" fold="1" page="1" pageScale="1" pageWidth="827" pageHeight="1169" math="0" shadow="0">
      <root>
        <mxCell id="0" />
        <mxCell id="1" parent="0" />
        <mxCell id="BZo-3w8dqCYTkhStSHwp-3" style="edgeStyle=orthogonalEdgeStyle;rounded=0;orthogonalLoop=1;jettySize=auto;html=1;" edge="1" parent="1" source="BZo-3w8dqCYTkhStSHwp-1" target="BZo-3w8dqCYTkhStSHwp-2">
          <mxGeometry relative="1" as="geometry" />
        </mxCell>
        <mxCell id="BZo-3w8dqCYTkhStSHwp-1" value="EC2" style="outlineConnect=0;dashed=0;verticalLabelPosition=bottom;verticalAlign=top;align=center;html=1;shape=mxgraph.aws3.ec2;fillColor=#F58534;gradientColor=none;" vertex="1" parent="1">
          <mxGeometry x="310" y="175" width="46.5" height="50" as="geometry" />
        </mxCell>
        <mxCell id="BZo-3w8dqCYTkhStSHwp-2" value="S3" style="outlineConnect=0;dashed=0;verticalLabelPosition=bottom;verticalAlign=top;align=center;html=1;shape=mxgraph.aws3.s3;fillColor=#E05243;gradientColor=none;" vertex="1" parent="1">
          <mxGeometry x="420" y="170" width="52.5" height="60" as="geometry" />
        </mxCell>
        <mxCell id="BZo-3w8dqCYTkhStSHwp-6" style="edgeStyle=orthogonalEdgeStyle;rounded=0;orthogonalLoop=1;jettySize=auto;html=1;" edge="1" parent="1" source="BZo-3w8dqCYTkhStSHwp-4" target="BZo-3w8dqCYTkhStSHwp-5">
          <mxGeometry relative="1" as="geometry" />
        </mxCell>
        <mxCell id="BZo-3w8dqCYTkhStSHwp-4" value="" style="shape=actor;whiteSpace=wrap;html=1;" vertex="1" parent="1">
          <mxGeometry x="120" y="170" width="40" height="60" as="geometry" />
        </mxCell>
        <mxCell id="BZo-3w8dqCYTkhStSHwp-5" value="" style="verticalLabelPosition=bottom;html=1;verticalAlign=top;align=center;strokeColor=none;fillColor=#00BEF2;shape=mxgraph.azure.git_repository;" vertex="1" parent="1">
          <mxGeometry x="210" y="175" width="50" height="50" as="geometry" />
        </mxCell>
        <mxCell id="BZo-3w8dqCYTkhStSHwp-7" style="edgeStyle=orthogonalEdgeStyle;rounded=0;orthogonalLoop=1;jettySize=auto;html=1;exitX=1;exitY=0.5;exitDx=0;exitDy=0;exitPerimeter=0;entryX=0;entryY=0.5;entryDx=0;entryDy=0;entryPerimeter=0;" edge="1" parent="1" source="BZo-3w8dqCYTkhStSHwp-5" target="BZo-3w8dqCYTkhStSHwp-1">
          <mxGeometry relative="1" as="geometry" />
        </mxCell>
        <mxCell id="BZo-3w8dqCYTkhStSHwp-9" value="GIT" style="text;html=1;align=center;verticalAlign=middle;resizable=0;points=[];autosize=1;strokeColor=none;fillColor=none;" vertex="1" parent="1">
          <mxGeometry x="215" y="220" width="40" height="30" as="geometry" />
        </mxCell>
      </root>
    </mxGraphModel>
  </diagram>
</mxfile>
